<?xml version="1.0" encoding="UTF-8" standalone="no"?>
<svg
   height="16"
   viewBox="0 -960 800 640"
   width="20"
   fill="#ffffff"
   version="1.1"
   id="svg1"
   sodipodi:docname="logo.svg"
   inkscape:version="1.4.2 (ebf0e940d0, 2025-05-08)"
   xmlns:inkscape="http://www.inkscape.org/namespaces/inkscape"
   xmlns:sodipodi="http://sodipodi.sourceforge.net/DTD/sodipodi-0.dtd"
   xmlns="http://www.w3.org/2000/svg"
   xmlns:svg="http://www.w3.org/2000/svg">
  <defs
     id="defs1" />
  <sodipodi:namedview
     id="namedview1"
     pagecolor="#505050"
     bordercolor="#eeeeee"
     borderopacity="1"
     inkscape:showpageshadow="0"
     inkscape:pageopacity="0"
     inkscape:pagecheckerboard="0"
     inkscape:deskcolor="#505050"
     inkscape:zoom="21.990284"
     inkscape:cx="5.0022091"
     inkscape:cy="10.41369"
     inkscape:window-width="1890"
     inkscape:window-height="1015"
     inkscape:window-x="12"
     inkscape:window-y="12"
     inkscape:window-maximized="1"
     inkscape:current-layer="svg1" />
  <path
     d="m 411,-469 q 29,-29 29,-71 v -220 h 120 v -80 H 400 v 220 q -13,-9 -28,-14.5 -15,-5.5 -32,-5.5 -42,0 -71,29 -29,29 -29,71 0,42 29,71 29,29 71,29 42,0 71,-29 z M 80,-320 Q 47,-320 23.5,-343.5 0,-367 0,-400 V -880 Q 0,-913 23.5,-936.5 47,-960 80,-960 h 640 q 33,0 56.5,23.5 23.5,23.5 23.5,56.5 v 480 q 0,33 -23.5,56.5 Q 753,-320 720,-320 Z m 0,-80 H 720 V -880 H 80 Z m 0,0 v -480 z"
     id="path1"
     style="fill:#000000;fill-opacity:1" />
</svg>
